<svg xmlns="http://www.w3.org/2000/svg" xmlns:xlink="http://www.w3.org/1999/xlink" width="0" height="0" style="position:absolute">
	
		<symbol id="1,033" viewBox="0 0 87 42">
			<title>1,033</title><desc>Created using Figma</desc><path fill-rule="evenodd" d="M7.008.48L0 4.8v7.008l4.608-2.64V34.08h6.48V.48h-4.08zm9.072 27.84l-.96 12.624h3.792l3.264-12.624H16.08zm18.816 6.24c-6.048 0-9.648-3.744-9.648-10.128V10.224C25.248 3.792 28.848 0 34.896 0c6.096 0 9.696 3.792 9.696 10.224v14.208c0 6.384-3.6 10.128-9.696 10.128zm0-6.048c2.256 0 3.456-1.392 3.456-4.08V10.224c0-2.736-1.2-4.176-3.456-4.176-2.256 0-3.408 1.44-3.408 4.176v14.208c0 2.688 1.152 4.08 3.408 4.08zm24.96-15.264l5.232-8.496V.48h-16.8v5.904h8.976l-4.56 7.536v4.224h3.168c2.256 0 3.408.768 3.408 3.984v1.68c0 3.12-.528 4.512-2.88 4.512-1.92 0-2.64-1.2-2.832-3.504h-6.432c.288 6.24 3.408 9.84 9.36 9.84 6.72 0 9.312-3.696 9.312-10.704v-2.064c0-4.08-2.208-8.016-5.952-8.64zm20.928 0l5.232-8.496V.48h-16.8v5.904h8.976l-4.56 7.536v4.224H76.8c2.256 0 3.408.768 3.408 3.984v1.68c0 3.12-.528 4.512-2.88 4.512-1.92 0-2.64-1.2-2.832-3.504h-6.432c.288 6.24 3.408 9.84 9.36 9.84 6.72 0 9.312-3.696 9.312-10.704v-2.064c0-4.08-2.208-8.016-5.952-8.64z"></path>
		</symbol>
	
		<symbol id="1,045" viewBox="0 0 90 42">
			<title>1,045</title><desc>Created using Figma</desc><path fill-rule="evenodd" d="M7.008.48L0 4.8v7.008l4.608-2.64V34.08h6.48V.48h-4.08zm9.072 27.84l-.96 12.624h3.792l3.264-12.624H16.08zm18.816 6.24c-6.048 0-9.648-3.744-9.648-10.128V10.224C25.248 3.792 28.848 0 34.896 0c6.096 0 9.696 3.792 9.696 10.224v14.208c0 6.384-3.6 10.128-9.696 10.128zm0-6.048c2.256 0 3.456-1.392 3.456-4.08V10.224c0-2.736-1.2-4.176-3.456-4.176-2.256 0-3.408 1.44-3.408 4.176v14.208c0 2.688 1.152 4.08 3.408 4.08zm33.648-7.968h-3.456V9.36h-5.184l-1.008 11.184h-5.04L59.424.48H53.04l-6.144 22.464V26.4H58.8v7.68h6.288V26.4h3.456v-5.856zm12.72-9.696c-1.248 0-2.496.384-3.504.912V6.24h10.368V.48H71.232v19.296h6.432C78 17.712 78.912 17.04 80.4 17.04c1.392 0 2.256.816 2.256 3.792v3.696c0 2.928-.96 3.792-2.592 3.792-1.584 0-2.4-.816-2.544-3.36h-6.624c.144 6 3.648 9.696 9.168 9.696s9.216-3.696 9.216-10.224v-3.504c0-6.432-3.36-10.08-8.016-10.08z"></path>
		</symbol>
	
		<symbol id="1,139" viewBox="0 0 80 42">
			<title>1,139</title><desc>Created using Figma</desc><path fill-rule="evenodd" d="M7.008.576L0 4.896v7.008l4.608-2.64v24.912h6.48V.576h-4.08zm9.072 27.84l-.96 12.624h3.792l3.264-12.624H16.08zM31.344.576l-7.008 4.32v7.008l4.608-2.64v24.912h6.48V.576h-4.08zm20.304 12.768l5.232-8.496V.576h-16.8V6.48h8.976l-4.56 7.536v4.224h3.168c2.256 0 3.408.768 3.408 3.984v1.68c0 3.12-.528 4.512-2.88 4.512-1.92 0-2.64-1.2-2.832-3.504h-6.432c.288 6.24 3.408 9.84 9.36 9.84 6.72 0 9.312-3.696 9.312-10.704v-2.064c0-4.08-2.208-8.016-5.952-8.64zM70.176 0c5.52 0 9.264 3.696 9.264 9.264v16.224c0 5.616-3.696 9.264-9.216 9.264-5.424 0-8.976-3.552-9.12-9.216h6.528c.192 1.776.96 2.88 2.592 2.88 1.632 0 2.64-.864 2.64-2.832V21.36c-.96.768-2.448 1.2-3.792 1.2-4.896 0-8.16-3.648-8.16-8.544V9.264C60.912 3.696 64.656 0 70.176 0zm-.048 16.608c1.728 0 2.736-1.152 2.736-3.072V9.312c0-1.872-1.008-2.976-2.688-2.976-1.68 0-2.688 1.104-2.688 2.976v4.224c0 1.92.96 3.072 2.64 3.072z"></path>
		</symbol>
	
		<symbol id="1,567" viewBox="0 0 86 42">
			<title>1,567</title><desc>Created using Figma</desc><path fill-rule="evenodd" d="M7.008.576L0 4.896v7.008l4.608-2.64v24.912h6.48V.576h-4.08zm9.072 27.84l-.96 12.624h3.792l3.264-12.624H16.08zm19.776-17.472c-1.248 0-2.496.384-3.504.912v-5.52H42.72V.576H25.824v19.296h6.432c.336-2.064 1.248-2.736 2.736-2.736 1.392 0 2.256.816 2.256 3.792v3.696c0 2.928-.96 3.792-2.592 3.792-1.584 0-2.4-.816-2.544-3.36h-6.624c.144 6 3.648 9.696 9.168 9.696s9.216-3.696 9.216-10.224v-3.504c0-6.432-3.36-10.08-8.016-10.08zm21.84 1.248c4.896 0 8.16 3.648 8.16 8.544v4.752c0 5.568-3.744 9.264-9.264 9.264s-9.264-3.696-9.264-9.264V9.264C47.328 3.648 51.024 0 56.544 0c5.424 0 8.976 3.552 9.12 9.216h-6.528c-.192-1.776-.96-2.88-2.592-2.88-1.632 0-2.64.864-2.64 2.832v4.224c.96-.768 2.448-1.2 3.792-1.2zM59.28 25.44v-4.224c0-1.92-.96-3.072-2.64-3.072-1.728 0-2.736 1.152-2.736 3.072v4.224c0 1.872 1.008 2.976 2.688 2.976 1.68 0 2.688-1.104 2.688-2.976zM67.008.576v5.952h10.896l-8.4 27.648h6.768L85.2 5.424V.576H67.008z"></path>
		</symbol>
	
		<symbol id="1,701" viewBox="0 0 78 42">
			<title>1,701</title><desc>Created using Figma</desc><path fill-rule="evenodd" d="M7.008.48L0 4.8v7.008l4.608-2.64V34.08h6.48V.48h-4.08zm9.072 27.84l-.96 12.624h3.792l3.264-12.624H16.08zM22.8.48v5.952h10.896l-8.4 27.648h6.768l8.928-28.752V.48H22.8zm30.72 34.08c-6.048 0-9.648-3.744-9.648-10.128V10.224C43.872 3.792 47.472 0 53.52 0c6.096 0 9.696 3.792 9.696 10.224v14.208c0 6.384-3.6 10.128-9.696 10.128zm0-6.048c2.256 0 3.456-1.392 3.456-4.08V10.224c0-2.736-1.2-4.176-3.456-4.176-2.256 0-3.408 1.44-3.408 4.176v14.208c0 2.688 1.152 4.08 3.408 4.08zM73.344.48L66.336 4.8v7.008l4.608-2.64V34.08h6.48V.48h-4.08z"></path>
		</symbol>
	
		<symbol id="2,016" viewBox="0 0 89 42">
			<title>2,016</title><desc>Created using Figma</desc><path fill-rule="evenodd" d="M0 34.176h18.624v-6.048H6.864c0-5.088 11.616-10.8 11.616-19.392C18.48 4.512 15.648 0 9.264 0 3.84 0 .624 3.264.336 9.648H6.48c.096-2.256 1.152-3.504 2.88-3.504 1.872 0 2.64 1.488 2.64 2.928 0 5.616-12 10.416-12 21.072v4.032zm21.984-5.76l-.96 12.624h3.792l3.264-12.624h-6.096zm18.816 6.24c-6.048 0-9.648-3.744-9.648-10.128V10.32c0-6.432 3.6-10.224 9.648-10.224 6.096 0 9.696 3.792 9.696 10.224v14.208c0 6.384-3.6 10.128-9.696 10.128zm0-6.048c2.256 0 3.456-1.392 3.456-4.08V10.32c0-2.736-1.2-4.176-3.456-4.176-2.256 0-3.408 1.44-3.408 4.176v14.208c0 2.688 1.152 4.08 3.408 4.08zM60.624.576l-7.008 4.32v7.008l4.608-2.64v24.912h6.48V.576h-4.08zm19.44 11.616c4.896 0 8.16 3.648 8.16 8.544v4.752c0 5.568-3.744 9.264-9.264 9.264s-9.264-3.696-9.264-9.264V9.264C69.696 3.648 73.392 0 78.912 0c5.424 0 8.976 3.552 9.12 9.216h-6.528c-.192-1.776-.96-2.88-2.592-2.88-1.632 0-2.64.864-2.64 2.832v4.224c.96-.768 2.448-1.2 3.792-1.2zm1.584 13.248v-4.224c0-1.92-.96-3.072-2.64-3.072-1.728 0-2.736 1.152-2.736 3.072v4.224c0 1.872 1.008 2.976 2.688 2.976 1.68 0 2.688-1.104 2.688-2.976z"></path>
		</symbol>
	
		<symbol id="3,190" viewBox="0 0 89 42">
			<title>3,190</title><desc>Created using Figma</desc><path fill-rule="evenodd" d="M12.72 13.344l5.232-8.496V.576h-16.8V6.48h8.976l-4.56 7.536v4.224h3.168c2.256 0 3.408.768 3.408 3.984v1.68c0 3.12-.528 4.512-2.88 4.512-1.92 0-2.64-1.2-2.832-3.504H0c.288 6.24 3.408 9.84 9.36 9.84 6.72 0 9.312-3.696 9.312-10.704v-2.064c0-4.08-2.208-8.016-5.952-8.64zm9.696 15.072l-.96 12.624h3.792l3.264-12.624h-6.096zM37.68.576l-7.008 4.32v7.008l4.608-2.64v24.912h6.48V.576h-4.08zM55.584 0c5.52 0 9.264 3.696 9.264 9.264v16.224c0 5.616-3.696 9.264-9.216 9.264-5.424 0-8.976-3.552-9.12-9.216h6.528c.192 1.776.96 2.88 2.592 2.88 1.632 0 2.64-.864 2.64-2.832V21.36c-.96.768-2.448 1.2-3.792 1.2-4.896 0-8.16-3.648-8.16-8.544V9.264C46.32 3.696 50.064 0 55.584 0zm-.048 16.608c1.728 0 2.736-1.152 2.736-3.072V9.312c0-1.872-1.008-2.976-2.688-2.976-1.68 0-2.688 1.104-2.688 2.976v4.224c0 1.92.96 3.072 2.64 3.072zm22.992 18.048c-6.048 0-9.648-3.744-9.648-10.128V10.32c0-6.432 3.6-10.224 9.648-10.224 6.096 0 9.696 3.792 9.696 10.224v14.208c0 6.384-3.6 10.128-9.696 10.128zm0-6.048c2.256 0 3.456-1.392 3.456-4.08V10.32c0-2.736-1.2-4.176-3.456-4.176-2.256 0-3.408 1.44-3.408 4.176v14.208c0 2.688 1.152 4.08 3.408 4.08z"></path>
		</symbol>
	
		<symbol id="8,754" viewBox="0 0 94 42">
			<title>8,754</title><desc>Created using Figma</desc><path fill-rule="evenodd" d="M15.888 16.464c1.968 1.488 3.216 4.032 3.216 6.864v1.536c0 6.192-3.84 9.888-9.552 9.888S0 31.056 0 24.864v-1.536C0 20.544 1.248 18 3.168 16.512 1.584 14.832.576 12.528.576 10.224V9.216C.576 3.696 4.176 0 9.552 0c5.376 0 8.976 3.696 8.976 9.216v1.008c0 2.304-1.008 4.512-2.64 6.24zM6.96 9.504v.912c0 2.352.912 3.408 2.592 3.408 1.68 0 2.592-1.056 2.592-3.408v-.912c0-2.304-.912-3.216-2.592-3.216-1.68 0-2.592.912-2.592 3.216zm5.664 15.312v-1.44c0-2.448-1.056-3.504-3.072-3.504S6.48 20.928 6.48 23.376v1.44c0 2.496 1.056 3.552 3.072 3.552s3.072-1.056 3.072-3.552zm10.176 3.6l-.96 12.624h3.792l3.264-12.624H22.8zM29.52.576v5.952h10.896l-8.4 27.648h6.768l8.928-28.752V.576H29.52zM61.2 10.944c-1.248 0-2.496.384-3.504.912v-5.52h10.368V.576H51.168v19.296H57.6c.336-2.064 1.248-2.736 2.736-2.736 1.392 0 2.256.816 2.256 3.792v3.696c0 2.928-.96 3.792-2.592 3.792-1.584 0-2.4-.816-2.544-3.36h-6.624c.144 6 3.648 9.696 9.168 9.696s9.216-3.696 9.216-10.224v-3.504c0-6.432-3.36-10.08-8.016-10.08zm31.392 9.696h-3.456V9.456h-5.184L82.944 20.64h-5.04L83.472.576h-6.384L70.944 23.04v3.456h11.904v7.68h6.288v-7.68h3.456V20.64z"></path>
		</symbol>
	
		<symbol id="FOLLOWERS" viewBox="0 0 69 10">
			<title>FOLLOWERS</title><desc>Created using Figma</desc><path fill-rule="evenodd" d="M3.888 1.068V.156H0v8.4h.984v-3.72h2.688v-.912H.984V1.068h2.904zm5.456 7.644c-1.56 0-2.496-1.068-2.496-2.796V2.784C6.848 1.068 7.784 0 9.344 0s2.484 1.068 2.484 2.784v3.132c0 1.728-.924 2.796-2.484 2.796zm0-.96c.972 0 1.476-.66 1.476-1.836V2.784C10.82 1.62 10.316.96 9.344.96c-.984 0-1.488.66-1.488 1.824v3.132c0 1.176.504 1.836 1.488 1.836zm6.992-.132V.156h-.984v8.4h3.912V7.62h-2.928zm6.884 0V.156h-.984v8.4h3.912V7.62H23.22zm8.168 1.092c-1.56 0-2.496-1.068-2.496-2.796V2.784c0-1.716.936-2.784 2.496-2.784s2.484 1.068 2.484 2.784v3.132c0 1.728-.924 2.796-2.484 2.796zm0-.96c.972 0 1.476-.66 1.476-1.836V2.784c0-1.164-.504-1.824-1.476-1.824-.984 0-1.488.66-1.488 1.824v3.132c0 1.176.504 1.836 1.488 1.836zM44.176.156l-.96 4.884c-.12.612-.336 1.74-.396 2.184h-.048c-.072-.444-.264-1.488-.408-2.28L41.44.288h-1.056l-.924 4.656c-.144.792-.336 1.836-.408 2.28h-.048c-.06-.444-.276-1.572-.396-2.184L37.66.156h-1.032l1.872 8.4h1.068l.912-4.128c.168-.732.348-1.992.408-2.676h.048c.06.684.24 1.944.408 2.676l.912 4.128h1.068l1.872-8.4h-1.02zm4.988 7.476V4.74h2.82v-.9h-2.82V1.068H52.2V.156h-4.02v8.4h4.152v-.924h-3.168zm10.184.924l-1.836-3.168h-.852v3.168h-.984v-8.4h2.052c1.584 0 2.46.936 2.46 2.544 0 1.38-.612 2.292-1.668 2.592l1.944 3.264h-1.116zM56.66 1.08v3.384h1.056c.972 0 1.476-.612 1.476-1.728 0-1.092-.504-1.656-1.464-1.656H56.66zm8.792 7.632c1.524 0 2.352-1.092 2.352-2.292 0-2.568-3.624-2.532-3.624-4.32 0-.696.468-1.152 1.26-1.152.732 0 1.224.432 1.26 1.356h.996C67.648.924 66.808 0 65.428 0c-1.356 0-2.244.9-2.244 2.088 0 2.472 3.612 2.52 3.612 4.32 0 .792-.444 1.356-1.356 1.356-.828 0-1.368-.492-1.392-1.44h-.996c.024 1.464.96 2.388 2.4 2.388z"></path>
		</symbol>
	
		<symbol id="Facebook-color" viewBox="0 0 20 20">
			<title>Facebook</title><desc>Created using Figma</desc><path fill-rule="evenodd" d="M10.683 20h-9.58C.495 20 0 19.506 0 18.896V1.104C0 .494.494 0 1.104 0h17.792C19.506 0 20 .494 20 1.104v17.792c0 .61-.494 1.104-1.104 1.104H13.8v-7.745h2.6l.389-3.019h-2.99V7.31c0-.873.243-1.469 1.497-1.469h1.598v-2.7a21.367 21.367 0 0 0-2.33-.12c-2.304 0-3.881 1.407-3.881 3.99v2.226H8.076v3.019h2.607V20z"></path>
		</symbol>
	
		<symbol id="GooglePlus-color" viewBox="0 0 32 20">
			<title>GooglePlus</title><desc>Created using Figma</desc><path fill-rule="evenodd" d="M27.97 8.218V4.752h-2.471v3.466H21.94v2.475h3.558v3.564h2.47v-3.564h3.46V8.218h-3.46zM9.981 8.02v3.96s3.835-.005 5.397-.005c-.846 2.568-2.16 3.966-5.397 3.966-3.275 0-5.831-2.66-5.831-5.941 0-3.28 2.556-5.94 5.831-5.94 1.732 0 2.85.61 3.876 1.459.82-.823.752-.94 2.841-2.916A9.935 9.935 0 0 0 9.982 0C4.469 0 0 4.477 0 10s4.47 10 9.982 10c8.24 0 10.254-7.188 9.587-11.98H9.982z"></path>
		</symbol>
	
		<symbol id="Instagram-color" viewBox="0 0 20 20">
			<title>Instagram</title><desc>Created using Figma</desc><path fill-rule="evenodd" d="M10 0C7.284 0 6.944.012 5.877.06 4.813.11 4.086.278 3.45.525a4.901 4.901 0 0 0-1.772 1.153A4.9 4.9 0 0 0 .525 3.45C.278 4.086.109 4.813.06 5.877.012 6.944 0 7.284 0 10s.012 3.056.06 4.123c.049 1.064.218 1.791.465 2.427a4.9 4.9 0 0 0 1.153 1.772 4.902 4.902 0 0 0 1.772 1.153c.636.247 1.363.416 2.427.465 1.067.048 1.407.06 4.123.06s3.056-.012 4.123-.06c1.064-.049 1.791-.218 2.427-.465a4.903 4.903 0 0 0 1.772-1.153 4.9 4.9 0 0 0 1.153-1.772c.247-.636.416-1.363.465-2.427.048-1.067.06-1.407.06-4.123s-.012-3.056-.06-4.123c-.049-1.064-.218-1.791-.465-2.427a4.9 4.9 0 0 0-1.153-1.772A4.902 4.902 0 0 0 16.55.525C15.914.278 15.187.109 14.123.06 13.056.012 12.716 0 10 0zm0 1.802c2.67 0 2.986.01 4.04.058.976.045 1.505.207 1.858.344.466.182.8.399 1.15.748.35.35.566.684.748 1.15.137.353.3.882.344 1.857.048 1.055.058 1.37.058 4.041 0 2.67-.01 2.986-.058 4.04-.044.976-.207 1.505-.344 1.858-.182.466-.398.8-.748 1.15-.35.35-.683.566-1.15.748-.353.137-.882.3-1.857.344-1.054.048-1.37.058-4.04.058-2.671 0-2.988-.01-4.042-.058-.975-.045-1.504-.207-1.857-.344a3.098 3.098 0 0 1-1.15-.748 3.098 3.098 0 0 1-.748-1.15c-.137-.353-.3-.882-.344-1.857-.048-1.055-.058-1.37-.058-4.041 0-2.67.01-2.986.058-4.04.045-.976.207-1.505.344-1.858.182-.466.399-.8.749-1.15.35-.35.683-.566 1.15-.748.352-.137.881-.3 1.856-.344 1.055-.048 1.37-.058 4.041-.058zM4.865 10a5.135 5.135 0 1 1 10.27 0 5.135 5.135 0 0 1-10.27 0zM10 13.333a3.333 3.333 0 1 1 0-6.666 3.333 3.333 0 0 1 0 6.666zm5.338-7.471a1.2 1.2 0 1 0 0-2.4 1.2 1.2 0 0 0 0 2.4z"></path>
		</symbol>
	
		<symbol id="LOOPS" viewBox="0 0 37 10">
			<title>LOOPS</title><desc>Created using Figma</desc><path fill-rule="evenodd" d="M.984 7.62V.156H0v8.4h3.912V7.62H.984zm8.168 1.092c-1.56 0-2.496-1.068-2.496-2.796V2.784C6.656 1.068 7.592 0 9.152 0s2.484 1.068 2.484 2.784v3.132c0 1.728-.924 2.796-2.484 2.796zm0-.96c.972 0 1.476-.66 1.476-1.836V2.784c0-1.164-.504-1.824-1.476-1.824-.984 0-1.488.66-1.488 1.824v3.132c0 1.176.504 1.836 1.488 1.836zm8.276.96c-1.56 0-2.496-1.068-2.496-2.796V2.784c0-1.716.936-2.784 2.496-2.784s2.484 1.068 2.484 2.784v3.132c0 1.728-.924 2.796-2.484 2.796zm0-.96c.972 0 1.476-.66 1.476-1.836V2.784C18.904 1.62 18.4.96 17.428.96c-.984 0-1.488.66-1.488 1.824v3.132c0 1.176.504 1.836 1.488 1.836zM25.56.156c1.596 0 2.496.96 2.496 2.652 0 1.74-.9 2.688-2.496 2.688h-1.14v3.06h-.984v-8.4h2.124zm0 4.404c1.008 0 1.5-.552 1.5-1.752 0-1.14-.492-1.716-1.5-1.716h-1.14V4.56h1.14zm7.64 4.152c1.524 0 2.352-1.092 2.352-2.292 0-2.568-3.624-2.532-3.624-4.32 0-.696.468-1.152 1.26-1.152.732 0 1.224.432 1.26 1.356h.996C35.396.924 34.556 0 33.176 0c-1.356 0-2.244.9-2.244 2.088 0 2.472 3.612 2.52 3.612 4.32 0 .792-.444 1.356-1.356 1.356-.828 0-1.368-.492-1.392-1.44H30.8c.024 1.464.96 2.388 2.4 2.388z"></path>
		</symbol>
	
		<symbol id="LinkedIn-color" viewBox="0 0 22 20">
			<title>LinkedIn</title><desc>Created using Figma</desc><path fill-rule="evenodd" d="M22 20h-4.862v-7.03c0-1.841-.76-3.097-2.433-3.097-1.28 0-1.991.847-2.322 1.664-.124.294-.105.702-.105 1.11V20H7.461s.062-12.454 0-13.586h4.817v2.132c.284-.932 1.824-2.263 4.28-2.263 3.048 0 5.442 1.954 5.442 6.162V20zM2.59 4.714h-.031C1.006 4.714 0 3.675 0 2.36 0 1.017 1.036 0 2.62 0 4.2 0 5.173 1.014 5.204 2.355c0 1.317-1.004 2.36-2.615 2.36zm-2.035 1.7h4.288V20H.555V6.414z"></path>
		</symbol>
	
		<symbol id="SUBSCRIBERS" viewBox="0 0 81 10">
			<title>SUBSCRIBERS</title><desc>Created using Figma</desc><path fill-rule="evenodd" d="M2.4 8.712c1.524 0 2.352-1.092 2.352-2.292 0-2.568-3.624-2.532-3.624-4.32 0-.696.468-1.152 1.26-1.152.732 0 1.224.432 1.26 1.356h.996C4.596.924 3.756 0 2.376 0 1.02 0 .132.9.132 2.088c0 2.472 3.612 2.52 3.612 4.32 0 .792-.444 1.356-1.356 1.356-.828 0-1.368-.492-1.392-1.44H0c.024 1.464.96 2.388 2.4 2.388zm7.88-.036c1.428 0 2.388-.936 2.388-2.664V.156h-.996v5.856c0 1.164-.552 1.704-1.392 1.704-.828 0-1.38-.54-1.38-1.704V.156H7.892v5.856c0 1.728.96 2.664 2.388 2.664zm9.428-4.452c.792.252 1.272.972 1.272 1.98 0 1.5-.924 2.352-2.4 2.352h-2.292v-8.4h2.136c1.38 0 2.232.828 2.232 2.232 0 .912-.372 1.572-.948 1.836zM18.352 1.08h-1.08v2.724h1.104c.852 0 1.272-.48 1.272-1.392 0-.912-.42-1.332-1.296-1.332zm.144 6.552c.996 0 1.488-.444 1.488-1.428 0-.972-.624-1.476-1.572-1.476h-1.14v2.904h1.224zm7.664 1.08c1.524 0 2.352-1.092 2.352-2.292 0-2.568-3.624-2.532-3.624-4.32 0-.696.468-1.152 1.26-1.152.732 0 1.224.432 1.26 1.356h.996C28.356.924 27.516 0 26.136 0c-1.356 0-2.244.9-2.244 2.088 0 2.472 3.612 2.52 3.612 4.32 0 .792-.444 1.356-1.356 1.356-.828 0-1.368-.492-1.392-1.44h-.996c.024 1.464.96 2.388 2.4 2.388zm7.76-.012c1.464 0 2.352-.9 2.448-2.496h-.972c-.096 1.056-.588 1.572-1.476 1.572-.816 0-1.38-.528-1.38-1.644V2.58c0-1.128.54-1.656 1.344-1.656.876 0 1.38.504 1.452 1.584h.972C36.224.888 35.336 0 33.896 0c-1.404 0-2.34.924-2.34 2.58v3.552c0 1.656.948 2.568 2.364 2.568zm9.368-.144l-1.836-3.168H40.6v3.168h-.984v-8.4h2.052c1.584 0 2.46.936 2.46 2.544 0 1.38-.612 2.292-1.668 2.592l1.944 3.264h-1.116zM40.6 1.08v3.384h1.056c.972 0 1.476-.612 1.476-1.728 0-1.092-.504-1.656-1.464-1.656H40.6zm6.944-.924v8.4h.984v-8.4h-.984zm8.168 4.068c.792.252 1.272.972 1.272 1.98 0 1.5-.924 2.352-2.4 2.352h-2.292v-8.4h2.136c1.38 0 2.232.828 2.232 2.232 0 .912-.372 1.572-.948 1.836zM54.356 1.08h-1.08v2.724h1.104c.852 0 1.272-.48 1.272-1.392 0-.912-.42-1.332-1.296-1.332zm.144 6.552c.996 0 1.488-.444 1.488-1.428 0-.972-.624-1.476-1.572-1.476h-1.14v2.904H54.5zm6.656 0V4.74h2.82v-.9h-2.82V1.068h3.036V.156h-4.02v8.4h4.152v-.924h-3.168zm10.184.924l-1.836-3.168h-.852v3.168h-.984v-8.4h2.052c1.584 0 2.46.936 2.46 2.544 0 1.38-.612 2.292-1.668 2.592l1.944 3.264H71.34zM68.652 1.08v3.384h1.056c.972 0 1.476-.612 1.476-1.728 0-1.092-.504-1.656-1.464-1.656h-1.068zm8.792 7.632c1.524 0 2.352-1.092 2.352-2.292 0-2.568-3.624-2.532-3.624-4.32 0-.696.468-1.152 1.26-1.152.732 0 1.224.432 1.26 1.356h.996C79.64.924 78.8 0 77.42 0c-1.356 0-2.244.9-2.244 2.088 0 2.472 3.612 2.52 3.612 4.32 0 .792-.444 1.356-1.356 1.356-.828 0-1.368-.492-1.392-1.44h-.996c.024 1.464.96 2.388 2.4 2.388z"></path>
		</symbol>
	
		<symbol id="Snapchat" viewBox="0 0 21 20">
			<title>Snapchat</title><desc>Created using Figma</desc><path fill="#fff" d="M10.359 0c-.018 0-.07.002-.094 0h-.095C8.92 0 8.138.559 7.345 1.143c-.483.33-.975.682-1.6.762-.237.066-.519.09-.754.095-.527-.006-.913-.082-1.224-.095a.705.705 0 0 0-.377-.095c-.144-.011-.271.014-.282.19-.093.182-.127.343-.189.476-.058.422-.12.668-.282.667C.705 3.472.153 3.883 0 4.19c.013.027.002.07 0 .096-.006.127.072.226.188.285 2.96.454 4.289 3.525 4.332 3.62.013.038.015.042 0 0 .198.418.234.742.094 1.047-.175.446-.838.66-1.318.762a.333.333 0 0 1-.283.095c-.843.394-.916.754-.847.953.024.298.437.516.753.476.11.04.19.024.283 0 .37-.195.724-.29 1.036-.286.42-.004.604.176.659.19-.043.213-.057.425-.094.667-.064 1.398-.174 3.163.282 4.19 1.317 3 4.136 3.235 4.991 3.239-.002-.004.342 0 .377 0 .848 0 3.674-.235 4.99-3.238.457-1.027.347-2.793.284-4.19V12c-.041-.186-.053-.378-.095-.571.053-.013.224-.179.565-.19.335.007.67.102 1.036.285.11.043.23.054.283.095.154-.041.28-.066.376-.095.313-.125.508-.336.471-.572.045-.194-.112-.506-.847-.857a.331.331 0 0 1-.283-.095c-.48-.103-1.143-.316-1.318-.762-.14-.305-.105-.628.094-1.048-.015.043-.014.04 0 0 .043-.094 1.371-3.164 4.332-3.619.115-.059.194-.158.188-.285-.003-.027-.013-.07 0-.096-.153-.305-.705-.716-2.637-1.047-.155.005-.216-.204-.282-.667-.062-.132-.097-.288-.188-.476.002-.119-.085-.185-.189-.19h-.094a1.11 1.11 0 0 0-.377.095c-.355.03-.721.09-1.224.095a3.235 3.235 0 0 1-.753-.095c-.626-.08-1.117-.431-1.601-.762C12.39.559 11.61 0 10.359 0z"></path><path fill-rule="evenodd" d="M5.1 16.605c1.385 3.147 4.321 3.392 5.188 3.392h.152l.263.003c.869 0 3.81-.245 5.197-3.393.466-1.06.354-2.86.264-4.305l-.004-.061-.008-.14a67.638 67.638 0 0 1-.019-.315.792.792 0 0 1 .353-.089c.262.012.567.1.905.26a.954.954 0 0 0 .402.082c.152 0 .307-.03.44-.085.388-.14.632-.424.639-.743.007-.405-.35-.754-1.062-1.04a5.117 5.117 0 0 0-.305-.104c-.401-.13-1.009-.325-1.173-.718-.086-.204-.052-.466.11-.8.053-.127 1.338-3.095 4.193-3.572a.44.44 0 0 0 .364-.46.598.598 0 0 0-.047-.2c-.214-.505-1.117-.876-2.763-1.135-.054-.074-.11-.334-.145-.497l-.001-.005a6.84 6.84 0 0 0-.12-.493c-.069-.238-.241-.369-.51-.369-.117 0-.276.02-.474.06a5.51 5.51 0 0 1-1.12.12c-.26 0-.53-.023-.802-.068-.53-.09-.981-.413-1.504-.787C12.764.606 11.917 0 10.63 0c-.058 0-.112.002-.154.004A1.286 1.286 0 0 0 10.37 0C9.082 0 8.235.607 7.487 1.143h-.001c-.522.374-.973.697-1.503.787a4.88 4.88 0 0 1-.802.068c-.47 0-.846-.074-1.12-.129a2.619 2.619 0 0 0-.474-.067.488.488 0 0 0-.51.375c-.05.175-.086.34-.12.5v.001c-.035.162-.092.427-.147.502C1.165 3.44.26 3.811.047 4.318A.604.604 0 0 0 0 4.517a.44.44 0 0 0 .364.46c2.854.476 4.14 3.445 4.202 3.593.152.313.187.575.101.779-.165.393-.771.588-1.173.718-.112.035-.218.07-.306.105-.972.389-1.107.836-1.05 1.143.08.425.592.711 1.02.711a.774.774 0 0 0 .334-.07c.366-.173.69-.26.965-.26a.83.83 0 0 1 .409.09l-.03.502-.001.016c-.09 1.444-.202 3.242.264 4.301zm10.683-4.294c.087 1.4.195 3.14-.228 4.102-1.285 2.92-4.013 3.136-4.852 3.135l-.368-.003c-.802 0-3.515-.225-4.796-3.134-.423-.961-.315-2.7-.228-4.1v-.002l.007-.105.031-.537.005-.088-.058-.066c-.025-.028-.263-.28-.798-.28-.34 0-.727.102-1.152.303a.347.347 0 0 1-.148.028c-.26 0-.56-.178-.593-.353-.029-.152.162-.402.783-.651.072-.03.167-.06.277-.095h.001c.479-.154 1.2-.387 1.444-.967.137-.328.1-.714-.112-1.149C4.912 8.144 3.545 5.025.483 4.46c.053-.124.384-.554 2.445-.877.322-.05.401-.418.493-.845.033-.152.067-.31.113-.469.016-.054.018-.059.092-.059.091 0 .23.028.391.06.293.058.693.137 1.204.137.286 0 .58-.026.875-.075.63-.107 1.144-.474 1.687-.864C8.513.946 9.266.406 10.417.406c.03 0 .058.001.111.004.05-.003.1-.004.149-.004 1.15 0 1.905.54 2.634 1.063.544.39 1.057.756 1.687.863.295.05.59.075.875.075.511 0 .912-.071 1.204-.13.16-.031.3-.05.415-.05.051 0 .054.003.068.05.046.16.08.314.113.466.092.426.17.792.493.843 2.061.322 2.393.751 2.457.926-3.075.513-4.44 3.632-4.527 3.837-.212.435-.249.821-.112 1.15.243.58.965.811 1.443.966h.002c.11.035.205.066.277.095.735.294.788.55.787.621-.003.126-.15.265-.37.344a.72.72 0 0 1-.274.052.52.52 0 0 1-.218-.04c-.396-.189-.76-.29-1.1-.303-.49.02-.71.253-.732.279l-.059.066.005.088c.01.206.024.42.038.643v.001z"></path>
		</symbol>
	
		<symbol id="Twitter-color" viewBox="0 0 24 20">
			<title>Twitter</title><desc>Created using Figma</desc><path fill-rule="evenodd" d="M24 2.368a9.617 9.617 0 0 1-2.827.794A5.038 5.038 0 0 0 23.338.37a9.698 9.698 0 0 1-3.129 1.223A4.856 4.856 0 0 0 16.616 0c-2.718 0-4.922 2.26-4.922 5.049 0 .396.042.78.126 1.15C7.728 5.988 4.1 3.979 1.67.922a5.14 5.14 0 0 0-.666 2.54c0 1.751.87 3.297 2.19 4.203a4.834 4.834 0 0 1-2.23-.63v.062c0 2.447 1.697 4.488 3.951 4.95a4.697 4.697 0 0 1-1.297.178c-.317 0-.627-.03-.927-.09.626 2.006 2.444 3.466 4.599 3.505A9.723 9.723 0 0 1 0 17.733 13.71 13.71 0 0 0 7.548 20c9.058 0 14.01-7.692 14.01-14.365 0-.22-.005-.439-.013-.654.962-.712 1.797-1.6 2.455-2.613z"></path>
		</symbol>
	
		<symbol id="Vine-color" viewBox="0 0 18 20">
			<title>Vine</title><desc>Created using Figma</desc><path fill-rule="evenodd" d="M17.391 9.943a6.46 6.46 0 0 1-1.45.17c-2.503 0-4.43-1.762-4.43-4.826 0-1.502.576-2.283 1.39-2.283.776 0 1.292.701 1.292 2.123 0 .809-.215 1.694-.373 2.219 0 0 .771 1.356 2.88.94.448-1.002.691-2.301.691-3.44 0-3.063-1.55-4.846-4.39-4.846-2.92 0-4.628 2.263-4.628 5.247 0 2.956 1.37 5.494 3.63 6.65-.95 1.917-2.16 3.606-3.42 4.878-2.289-2.79-4.358-6.51-5.207-13.771H0c1.56 12.093 6.209 15.944 7.437 16.683.696.42 1.295.4 1.93.04.998-.573 3.995-3.593 5.656-7.13a11.042 11.042 0 0 0 2.368-.274v-2.38z"></path>
		</symbol>
	
		<symbol id="Youtube-color" viewBox="0 0 29 20">
			<title>Youtube</title><desc>Created using Figma</desc><path fill-rule="evenodd" d="M11.202 13.688v-7.99l7.628 4.01-7.628 3.98zm16.75-9.374s-.275-1.96-1.121-2.822C25.757.359 24.553.354 24 .288 20.052 0 14.125 0 14.125 0h-.013S8.185 0 4.234.288c-.553.066-1.755.071-2.83 1.204C.558 2.355.282 4.314.282 4.314S0 6.616 0 8.916v2.158c0 2.301.282 4.602.282 4.602s.276 1.96 1.122 2.822c1.075 1.133 2.485 1.098 3.114 1.216 2.258.219 9.6.286 9.6.286s5.933-.009 9.884-.297c.551-.066 1.755-.072 2.829-1.205.846-.863 1.122-2.822 1.122-2.822s.282-2.3.282-4.602V8.916c0-2.3-.282-4.602-.282-4.602z"></path>
		</symbol>
	
		<symbol id="dashboard-icon" viewBox="0 0 20 20">
			<title>dashboard-icon</title><desc>Created using Figma</desc><path fill-rule="evenodd" d="M7.222 0H1.667C.747 0 0 .746 0 1.667v5.555c0 .92.746 1.667 1.667 1.667h5.555c.92 0 1.667-.746 1.667-1.667V1.667C8.889.747 8.143 0 7.222 0zm-6.11 1.667c0-.307.248-.556.555-.556h5.555c.307 0 .556.249.556.556v5.555a.556.556 0 0 1-.556.556H1.667a.556.556 0 0 1-.556-.556V1.667zm11.666-.556a.556.556 0 0 0-.556.556v5.555c0 .307.249.556.556.556h5.555a.556.556 0 0 0 .556-.556V1.667a.556.556 0 0 0-.556-.556h-5.555zM18.333 0h-5.555c-.92 0-1.667.746-1.667 1.667v5.555c0 .92.746 1.667 1.667 1.667h5.555c.92 0 1.667-.746 1.667-1.667V1.667C20 .747 19.254 0 18.333 0zM1.667 12.222a.556.556 0 0 0-.556.556v5.555c0 .307.249.556.556.556h5.555a.556.556 0 0 0 .556-.556v-5.555a.556.556 0 0 0-.556-.556H1.667zm5.555-1.11H1.667c-.92 0-1.667.745-1.667 1.666v5.555C0 19.253.746 20 1.667 20h5.555c.92 0 1.667-.746 1.667-1.667v-5.555c0-.92-.746-1.667-1.667-1.667zm5.556 1.11a.556.556 0 0 0-.556.556v5.555c0 .307.249.556.556.556h5.555a.556.556 0 0 0 .556-.556v-5.555a.556.556 0 0 0-.556-.556h-5.555zm5.555-1.11h-5.555c-.92 0-1.667.745-1.667 1.666v5.555c0 .92.746 1.667 1.667 1.667h5.555c.92 0 1.667-.746 1.667-1.667v-5.555c0-.92-.746-1.667-1.667-1.667z"></path>
		</symbol>
	
		<symbol id="invite-friends-icon" viewBox="0 0 20 20">
			<title>invite-friends-icon</title><desc>Created using Figma</desc><path fill-rule="evenodd" d="M16.627 3.522h2.891c.266 0 .482.225.482.503a.493.493 0 0 1-.482.503h-2.891v3.02a.493.493 0 0 1-.482.502.493.493 0 0 1-.482-.503V4.528h-2.89a.493.493 0 0 1-.483-.503c0-.278.216-.503.482-.503h2.891V.503c0-.278.216-.503.482-.503s.482.225.482.503v3.019zM3.218 7.352c.19.509.637 1.66.976 2.19l.038.062c.275.438.787 1.253 2.395 1.253s2.12-.815 2.394-1.252l.04-.062c.338-.53.785-1.682.975-2.19a.93.93 0 0 0 .528-.848v-.849a.938.938 0 0 0-.407-.779v-.282c0-2.042-1.32-3.262-3.53-3.262s-3.53 1.22-3.53 3.262v.287a.947.947 0 0 0-.407.774v.85c0 .377.218.702.528.847zm.436-1.623a.497.497 0 0 0 .407-.497v-.637c0-1.476.888-2.256 2.566-2.256 1.68 0 2.567.78 2.567 2.256v.637c0 .25.176.46.406.497v.703a.488.488 0 0 0-.376.32c-.164.458-.657 1.75-.965 2.232l-.044.068c-.223.356-.5.799-1.588.799-1.087 0-1.365-.443-1.588-.799l-.044-.068c-.307-.482-.8-1.775-.965-2.232a.487.487 0 0 0-.376-.32v-.703zm-2.222 6.11h10.39c.459 0 .872.189 1.135.519.254.319.35.738.27 1.18-.11.614-.66 1.182-.99 1.522l-.074.077-4.034 4.212a2.084 2.084 0 0 1-1.39.646.482.482 0 0 1-.06.005h-.092a2.083 2.083 0 0 1-1.461-.65l-4.108-4.29c-.33-.34-.88-.908-.99-1.522-.08-.442.016-.861.27-1.18.262-.33.675-.52 1.134-.52zm10.848 1.514c-.055.305-.505.769-.72.991l-4.113 4.293a1.14 1.14 0 0 1-.792.354h-.001l-.019.001h-.014a1.14 1.14 0 0 1-.813-.355l-4.035-4.212-.078-.08v-.001c-.217-.223-.666-.686-.72-.99-.019-.102-.022-.245.064-.353.079-.1.222-.156.393-.156h10.39c.171 0 .315.057.393.156.086.108.083.25.065.352z"></path>
		</symbol>
	
		<symbol id="log-out-icon" viewBox="0 0 20 20">
			<title>log-out-icon</title><desc>Created using Figma</desc><path fill-rule="evenodd" d="M8.862 19.171c.6 0 1.139-.788 1.139-1.82v-.415h.763v.415c0 1.445-.822 2.649-1.902 2.649h-6.96C.826 20 0 18.788 0 17.35V2.65C0 1.204.822 0 1.902 0h6.96c1.076 0 1.902 1.213 1.902 2.65v.414h-.763V2.65c0-1.025-.543-1.821-1.139-1.821h-6.96c-.6 0-1.139.788-1.139 1.82v14.702c0 1.024.543 1.82 1.139 1.82h6.96zm5.314-14.323l3.834 4.163H6.1v.829h12.673l.148.16-4.745 5.152.54.586 4.744-5.152L20 10l-.54-.586-4.745-5.152-.54.586z"></path>
		</symbol>
	
		<symbol id="notification-icon" viewBox="0 0 15 20">
			<title>notification-icon</title><desc>Created using Figma</desc><path fill-rule="evenodd" d="M13.978 14.429c0 .143.068.285.17.321 1.37.539 1.023 2.75-.579 2.75h-3.375c-.17 1.393-1.33 2.5-2.694 2.5-1.363 0-2.523-1.107-2.693-2.5H1.432c-1.622 0-1.936-2.216-.58-2.75.102-.036.17-.179.17-.321v-5.5c0-1.857.717-3.607 1.978-4.893.955-.929 2.114-1.572 3.375-1.786-.136-.25-.238-.536-.238-.821C6.137.643 6.75 0 7.5 0s1.364.643 1.364 1.429c0 .321-.068.571-.238.821 3 .571 5.352 3.429 5.352 6.822v5.357zm-5.796-13c0-.393-.307-.715-.682-.715-.375 0-.681.322-.681.715 0 .392.306.714.681.714.375 0 .682-.322.682-.714zM7.5 19.286c-1.022 0-1.84-.786-2.011-1.786h4.023c-.17 1-.989 1.786-2.012 1.786zm-6.068-2.5h12.137c.85 0 1.006-1.13.34-1.393-.374-.143-.613-.536-.613-.964V9.072c0-3.333-2.56-6.215-5.796-6.215-1.5 0-2.932.607-4.023 1.715C2.318 5.714 1.704 7.25 1.704 8.929v5.5c0 .428-.238.821-.613.964a.735.735 0 0 0 .34 1.393z"></path>
		</symbol>
	
		<symbol id="prev-next" viewBox="0 0 199.404 199.404">
			<path d="M199.404 63.993L171.12 35.709l-71.418 71.418-71.418-71.418L0 63.993l99.702 99.702z"></path>
		</symbol>
	
		<symbol id="search-icon" viewBox="0 0 53.627 53.627">
			<path d="M53.627 49.385L37.795 33.553C40.423 30.046 42 25.709 42 21 42 9.42 32.58 0 21 0S0 9.42 0 21s9.42 21 21 21c4.709 0 9.046-1.577 12.553-4.205l15.832 15.832 4.242-4.242zM2 21C2 10.523 10.523 2 21 2s19 8.523 19 19-8.523 19-19 19S2 31.477 2 21z"></path>
		</symbol>
	
		<symbol id="settings-icon" viewBox="0 0 20 20">
			<title>settings-icon</title><desc>Created using Figma</desc><path fill-rule="evenodd" d="M.218 13.83l1.415 2.317c.397.662 1.24.898 1.96.59l.992-.425a8.452 8.452 0 0 0 2.407 1.324l.1 1.04C7.165 19.433 7.81 20 8.604 20h2.804c.794 0 1.439-.567 1.513-1.324l.1-1.04a8.452 8.452 0 0 0 2.406-1.324l.993.426c.72.307 1.563.07 1.96-.591l1.415-2.317a1.406 1.406 0 0 0-.447-1.915l-.918-.591A7.74 7.74 0 0 0 18.555 10c0-.45-.05-.875-.124-1.324l.893-.59a1.406 1.406 0 0 0 .447-1.916l-1.415-2.317c-.397-.662-1.24-.898-1.96-.59l-.992.425a8.452 8.452 0 0 0-2.407-1.324l-.1-1.04C12.824.567 12.179 0 11.385 0H8.58c-.794 0-1.439.567-1.513 1.324l-.1 1.04A8.452 8.452 0 0 0 4.56 3.688l-.992-.426c-.72-.307-1.563-.07-1.96.591L.193 6.17A1.435 1.435 0 0 0 .64 8.085l.893.591A7.737 7.737 0 0 0 1.41 10c0 .45.05.875.124 1.324l-.893.59c-.645.45-.819 1.254-.422 1.916zM15 10c0 2.764-2.236 5-5 5s-5-2.236-5-5 2.261-5 5-5 5 2.236 5 5zm-1.005 0A3.989 3.989 0 0 0 10 6.005 3.989 3.989 0 0 0 6.005 10 4.005 4.005 0 0 0 10 13.995 4.005 4.005 0 0 0 13.995 10zM2.65 11.75l-1.414.945a.484.484 0 0 0-.174.662L2.5 15.674c.149.236.447.33.695.213l1.563-.686.248.213a7.735 7.735 0 0 0 2.605 1.442l.298.094.15 1.655a.509.509 0 0 0 .52.473h2.854a.527.527 0 0 0 .52-.473l.15-1.655.297-.094a7.735 7.735 0 0 0 2.606-1.442l.248-.213 1.563.685c.273.095.546.024.695-.212l1.364-2.317c.15-.213.075-.52-.148-.662l-1.415-.946.075-.307c.099-.473.149-.946.149-1.442s-.05-.97-.15-1.442l-.074-.307 1.415-.946a.472.472 0 0 0 .149-.662l-1.415-2.317a.547.547 0 0 0-.695-.213l-1.563.686-.248-.213a7.736 7.736 0 0 0-2.605-1.442l-.298-.094-.149-1.655a.509.509 0 0 0-.521-.473H8.58a.527.527 0 0 0-.52.473L7.91 3.05l-.298.094a7.735 7.735 0 0 0-2.605 1.442L4.76 4.8l-1.563-.686c-.273-.094-.546-.023-.695.213L1.087 6.643c-.15.213-.075.52.149.662l1.414.946-.075.307c-.099.473-.148.946-.148 1.442s.05.97.148 1.442l.075.307z"></path>
		</symbol>
	
		<symbol id="snap score" viewBox="0 0 73 10">
			<title>snap score</title><desc>Created using Figma</desc><path fill-rule="evenodd" d="M2.4 8.712c1.524 0 2.352-1.092 2.352-2.292 0-2.568-3.624-2.532-3.624-4.32 0-.696.468-1.152 1.26-1.152.732 0 1.224.432 1.26 1.356h.996C4.596.924 3.756 0 2.376 0 1.02 0 .132.9.132 2.088c0 2.472 3.612 2.52 3.612 4.32 0 .792-.444 1.356-1.356 1.356-.828 0-1.368-.492-1.392-1.44H0c.024 1.464.96 2.388 2.4 2.388zM11.744.156v3.888c0 .732.072 1.908.132 2.64l-.036.012A34.257 34.257 0 0 0 11 4.74L8.9.156h-.996v8.4h.984v-3.96c0-.72-.048-1.836-.096-2.58l.036-.012c.18.48.564 1.44.828 2.04l2.064 4.512h.996v-8.4h-.972zm8.324 8.4l-.444-1.824h-2.436l-.444 1.824h-1.032l2.16-8.4h1.068l2.16 8.4h-1.032zM17.404 5.82h2.004l-.684-2.844a20.093 20.093 0 0 1-.3-1.572h-.036a20.093 20.093 0 0 1-.3 1.572l-.684 2.844zM26.208.156c1.596 0 2.496.96 2.496 2.652 0 1.74-.9 2.688-2.496 2.688h-1.14v3.06h-.984v-8.4h2.124zm0 4.404c1.008 0 1.5-.552 1.5-1.752 0-1.14-.492-1.716-1.5-1.716h-1.14V4.56h1.14zm12.304 4.152c1.524 0 2.352-1.092 2.352-2.292 0-2.568-3.624-2.532-3.624-4.32 0-.696.468-1.152 1.26-1.152.732 0 1.224.432 1.26 1.356h.996C40.708.924 39.868 0 38.488 0c-1.356 0-2.244.9-2.244 2.088 0 2.472 3.612 2.52 3.612 4.32 0 .792-.444 1.356-1.356 1.356-.828 0-1.368-.492-1.392-1.44h-.996c.024 1.464.96 2.388 2.4 2.388zm7.76-.012c1.464 0 2.352-.9 2.448-2.496h-.972c-.096 1.056-.588 1.572-1.476 1.572-.816 0-1.38-.528-1.38-1.644V2.58c0-1.128.54-1.656 1.344-1.656.876 0 1.38.504 1.452 1.584h.972C48.576.888 47.688 0 46.248 0c-1.404 0-2.34.924-2.34 2.58v3.552c0 1.656.948 2.568 2.364 2.568zm7.964.012c-1.56 0-2.496-1.068-2.496-2.796V2.784c0-1.716.936-2.784 2.496-2.784s2.484 1.068 2.484 2.784v3.132c0 1.728-.924 2.796-2.484 2.796zm0-.96c.972 0 1.476-.66 1.476-1.836V2.784c0-1.164-.504-1.824-1.476-1.824-.984 0-1.488.66-1.488 1.824v3.132c0 1.176.504 1.836 1.488 1.836zm9.68.804L62.08 5.388h-.852v3.168h-.984v-8.4h2.052c1.584 0 2.46.936 2.46 2.544 0 1.38-.612 2.292-1.668 2.592l1.944 3.264h-1.116zM61.228 1.08v3.384h1.056c.972 0 1.476-.612 1.476-1.728 0-1.092-.504-1.656-1.464-1.656h-1.068zm7.928 6.552V4.74h2.82v-.9h-2.82V1.068h3.036V.156h-4.02v8.4h4.152v-.924h-3.168z"></path>
		</symbol>
	
		<symbol id="social-feed-icon" viewBox="0 0 20 20">
			<title>social-feed-icon</title><desc>Created using Figma</desc><path fill-rule="evenodd" d="M17.078 20H2.922A2.925 2.925 0 0 1 0 17.078V2.922C0 1.31 1.31 0 2.922 0h14.156A2.925 2.925 0 0 1 20 2.922v14.156A2.925 2.925 0 0 1 17.078 20zm-1.211-6.608a.4.4 0 1 0 .8 0 9.988 9.988 0 0 0-2.95-7.11A9.987 9.987 0 0 0 6.61 3.335a.4.4 0 0 0 0 .8c2.469 0 4.792.964 6.543 2.714a9.193 9.193 0 0 1 2.715 6.544zm-3.22 0a.4.4 0 1 0 .8 0c0-1.824-.712-3.54-2.005-4.834a6.791 6.791 0 0 0-4.834-2.005.4.4 0 0 0 0 .8c1.61 0 3.127.629 4.268 1.77a5.998 5.998 0 0 1 1.772 4.269zM7.213 15.2A2.415 2.415 0 0 1 4.8 12.788a2.415 2.415 0 0 1 2.412-2.412 2.415 2.415 0 0 1 2.412 2.412A2.415 2.415 0 0 1 7.212 15.2zM5.6 12.788c0-.89.723-1.613 1.612-1.613.889 0 1.612.724 1.612 1.613S8.101 14.4 7.212 14.4A1.615 1.615 0 0 1 5.6 12.788zM.8 2.922C.8 1.752 1.752.8 2.922.8h14.156c1.17 0 2.122.952 2.122 2.122v14.156c0 1.17-.952 2.122-2.122 2.122H2.922A2.124 2.124 0 0 1 .8 17.078V2.922z"></path>
		</symbol>
	
		<symbol id="vector" viewBox="0 0 7 12">
			<title>Page 1</title><desc>Created using Figma</desc><path fill-rule="evenodd" d="M7 5.686L3.5 0 0 5.684h2.265V12h2.47V5.684L7 5.686z"></path>
		</symbol>
	
</svg>
