<svg width="87" height="42" viewBox="0 0 87 42" version="1.1" xmlns="http://www.w3.org/2000/svg" xmlns:xlink="http://www.w3.org/1999/xlink">
<title>1,033</title>
<desc>Created using Figma</desc>
<g>
<g>
<path id="path0_fill" fill-rule="evenodd" d="M 7.008 0.480011L 0 4.80001L 0 11.808L 4.608 9.16801L 4.608 34.08L 11.088 34.08L 11.088 0.480011L 7.008 0.480011ZM 16.08 28.32L 15.12 40.944L 18.912 40.944L 22.176 28.32L 16.08 28.32ZM 34.896 34.56C 28.848 34.56 25.248 30.816 25.248 24.432L 25.248 10.224C 25.248 3.792 28.848 0 34.896 0C 40.992 0 44.592 3.792 44.592 10.224L 44.592 24.432C 44.592 30.816 40.992 34.56 34.896 34.56ZM 34.896 28.512C 37.152 28.512 38.352 27.12 38.352 24.432L 38.352 10.224C 38.352 7.488 37.152 6.048 34.896 6.048C 32.64 6.048 31.488 7.488 31.488 10.224L 31.488 24.432C 31.488 27.12 32.64 28.512 34.896 28.512ZM 59.856 13.248L 65.088 4.75201L 65.088 0.480011L 48.288 0.480011L 48.288 6.38401L 57.264 6.38401L 52.704 13.92L 52.704 18.144L 55.872 18.144C 58.128 18.144 59.28 18.912 59.28 22.128L 59.28 23.808C 59.28 26.928 58.752 28.32 56.4 28.32C 54.48 28.32 53.76 27.12 53.568 24.816L 47.136 24.816C 47.424 31.056 50.544 34.656 56.496 34.656C 63.216 34.656 65.808 30.96 65.808 23.952L 65.808 21.888C 65.808 17.808 63.6 13.872 59.856 13.248ZM 80.784 13.248L 86.016 4.75201L 86.016 0.480011L 69.216 0.480011L 69.216 6.38401L 78.192 6.38401L 73.632 13.92L 73.632 18.144L 76.8 18.144C 79.056 18.144 80.208 18.912 80.208 22.128L 80.208 23.808C 80.208 26.928 79.68 28.32 77.328 28.32C 75.408 28.32 74.688 27.12 74.496 24.816L 68.064 24.816C 68.352 31.056 71.472 34.656 77.424 34.656C 84.144 34.656 86.736 30.96 86.736 23.952L 86.736 21.888C 86.736 17.808 84.528 13.872 80.784 13.248Z"/>
</g>
</g>

</svg>
