<svg width="90" height="42" viewBox="0 0 90 42" version="1.1" xmlns="http://www.w3.org/2000/svg" xmlns:xlink="http://www.w3.org/1999/xlink">
<title>1,045</title>
<desc>Created using Figma</desc>
<g>
<g>
<path id="path0_fill" fill-rule="evenodd" d="M 7.008 0.480011L 0 4.80001L 0 11.808L 4.608 9.16801L 4.608 34.08L 11.088 34.08L 11.088 0.480011L 7.008 0.480011ZM 16.08 28.32L 15.12 40.944L 18.912 40.944L 22.176 28.32L 16.08 28.32ZM 34.896 34.56C 28.848 34.56 25.248 30.816 25.248 24.432L 25.248 10.224C 25.248 3.792 28.848 0 34.896 0C 40.992 0 44.592 3.792 44.592 10.224L 44.592 24.432C 44.592 30.816 40.992 34.56 34.896 34.56ZM 34.896 28.512C 37.152 28.512 38.352 27.12 38.352 24.432L 38.352 10.224C 38.352 7.488 37.152 6.048 34.896 6.048C 32.64 6.048 31.488 7.488 31.488 10.224L 31.488 24.432C 31.488 27.12 32.64 28.512 34.896 28.512ZM 68.544 20.544L 65.088 20.544L 65.088 9.36001L 59.904 9.36001L 58.896 20.544L 53.856 20.544L 59.424 0.480011L 53.04 0.480011L 46.896 22.944L 46.896 26.4L 58.8 26.4L 58.8 34.08L 65.088 34.08L 65.088 26.4L 68.544 26.4L 68.544 20.544ZM 81.264 10.848C 80.016 10.848 78.768 11.232 77.76 11.76L 77.76 6.24001L 88.128 6.24001L 88.128 0.480011L 71.232 0.480011L 71.232 19.776L 77.664 19.776C 78 17.712 78.912 17.04 80.4 17.04C 81.792 17.04 82.656 17.856 82.656 20.832L 82.656 24.528C 82.656 27.456 81.696 28.32 80.064 28.32C 78.48 28.32 77.664 27.504 77.52 24.96L 70.896 24.96C 71.04 30.96 74.544 34.656 80.064 34.656C 85.584 34.656 89.28 30.96 89.28 24.432L 89.28 20.928C 89.28 14.496 85.92 10.848 81.264 10.848Z"/>
</g>
</g>

</svg>
