<svg width="80" height="42" viewBox="0 0 80 42" version="1.1" xmlns="http://www.w3.org/2000/svg" xmlns:xlink="http://www.w3.org/1999/xlink">
<title>1,139</title>
<desc>Created using Figma</desc>
<g>
<g>
<path id="path0_fill" fill-rule="evenodd" d="M 7.008 0.576004L 0 4.896L 0 11.904L 4.608 9.264L 4.608 34.176L 11.088 34.176L 11.088 0.576004L 7.008 0.576004ZM 16.08 28.416L 15.12 41.04L 18.912 41.04L 22.176 28.416L 16.08 28.416ZM 31.344 0.576004L 24.336 4.896L 24.336 11.904L 28.944 9.264L 28.944 34.176L 35.424 34.176L 35.424 0.576004L 31.344 0.576004ZM 51.648 13.344L 56.88 4.848L 56.88 0.576004L 40.08 0.576004L 40.08 6.48L 49.056 6.48L 44.496 14.016L 44.496 18.24L 47.664 18.24C 49.92 18.24 51.072 19.008 51.072 22.224L 51.072 23.904C 51.072 27.024 50.544 28.416 48.192 28.416C 46.272 28.416 45.552 27.216 45.36 24.912L 38.928 24.912C 39.216 31.152 42.336 34.752 48.288 34.752C 55.008 34.752 57.6 31.056 57.6 24.048L 57.6 21.984C 57.6 17.904 55.392 13.968 51.648 13.344ZM 70.176 0C 75.696 0 79.44 3.696 79.44 9.264L 79.44 25.488C 79.44 31.104 75.744 34.752 70.224 34.752C 64.8 34.752 61.248 31.2 61.104 25.536L 67.632 25.536C 67.824 27.312 68.592 28.416 70.224 28.416C 71.856 28.416 72.864 27.552 72.864 25.584L 72.864 21.36C 71.904 22.128 70.416 22.56 69.072 22.56C 64.176 22.56 60.912 18.912 60.912 14.016L 60.912 9.264C 60.912 3.696 64.656 0 70.176 0ZM 70.128 16.608C 71.856 16.608 72.864 15.456 72.864 13.536L 72.864 9.312C 72.864 7.44 71.856 6.336 70.176 6.336C 68.496 6.336 67.488 7.44 67.488 9.312L 67.488 13.536C 67.488 15.456 68.448 16.608 70.128 16.608Z"/>
</g>
</g>

</svg>
