<svg width="86" height="42" viewBox="0 0 86 42" version="1.1" xmlns="http://www.w3.org/2000/svg" xmlns:xlink="http://www.w3.org/1999/xlink">
<title>1,567</title>
<desc>Created using Figma</desc>
<g>
<g>
<path id="path0_fill" fill-rule="evenodd" d="M 7.008 0.576004L 0 4.896L 0 11.904L 4.608 9.264L 4.608 34.176L 11.088 34.176L 11.088 0.576004L 7.008 0.576004ZM 16.08 28.416L 15.12 41.04L 18.912 41.04L 22.176 28.416L 16.08 28.416ZM 35.856 10.944C 34.608 10.944 33.36 11.328 32.352 11.856L 32.352 6.336L 42.72 6.336L 42.72 0.576004L 25.824 0.576004L 25.824 19.872L 32.256 19.872C 32.592 17.808 33.504 17.136 34.992 17.136C 36.384 17.136 37.248 17.952 37.248 20.928L 37.248 24.624C 37.248 27.552 36.288 28.416 34.656 28.416C 33.072 28.416 32.256 27.6 32.112 25.056L 25.488 25.056C 25.632 31.056 29.136 34.752 34.656 34.752C 40.176 34.752 43.872 31.056 43.872 24.528L 43.872 21.024C 43.872 14.592 40.512 10.944 35.856 10.944ZM 57.696 12.192C 62.592 12.192 65.856 15.84 65.856 20.736L 65.856 25.488C 65.856 31.056 62.112 34.752 56.592 34.752C 51.072 34.752 47.328 31.056 47.328 25.488L 47.328 9.264C 47.328 3.648 51.024 0 56.544 0C 61.968 0 65.52 3.552 65.664 9.216L 59.136 9.216C 58.944 7.44 58.176 6.336 56.544 6.336C 54.912 6.336 53.904 7.2 53.904 9.168L 53.904 13.392C 54.864 12.624 56.352 12.192 57.696 12.192ZM 59.28 25.44L 59.28 21.216C 59.28 19.296 58.32 18.144 56.64 18.144C 54.912 18.144 53.904 19.296 53.904 21.216L 53.904 25.44C 53.904 27.312 54.912 28.416 56.592 28.416C 58.272 28.416 59.28 27.312 59.28 25.44ZM 67.008 0.576004L 67.008 6.528L 77.904 6.528L 69.504 34.176L 76.272 34.176L 85.2 5.424L 85.2 0.576004L 67.008 0.576004Z"/>
</g>
</g>

</svg>
