<svg width="78" height="42" viewBox="0 0 78 42" version="1.1" xmlns="http://www.w3.org/2000/svg" xmlns:xlink="http://www.w3.org/1999/xlink">
<title>1,701</title>
<desc>Created using Figma</desc>
<g>
<g>
<path id="path0_fill" fill-rule="evenodd" d="M 7.008 0.479996L 0 4.8L 0 11.808L 4.608 9.168L 4.608 34.08L 11.088 34.08L 11.088 0.479996L 7.008 0.479996ZM 16.08 28.32L 15.12 40.944L 18.912 40.944L 22.176 28.32L 16.08 28.32ZM 22.8 0.479996L 22.8 6.432L 33.696 6.432L 25.296 34.08L 32.064 34.08L 40.992 5.328L 40.992 0.479996L 22.8 0.479996ZM 53.52 34.56C 47.472 34.56 43.872 30.816 43.872 24.432L 43.872 10.224C 43.872 3.792 47.472 0 53.52 0C 59.616 0 63.216 3.792 63.216 10.224L 63.216 24.432C 63.216 30.816 59.616 34.56 53.52 34.56ZM 53.52 28.512C 55.776 28.512 56.976 27.12 56.976 24.432L 56.976 10.224C 56.976 7.488 55.776 6.048 53.52 6.048C 51.264 6.048 50.112 7.488 50.112 10.224L 50.112 24.432C 50.112 27.12 51.264 28.512 53.52 28.512ZM 73.344 0.479996L 66.336 4.8L 66.336 11.808L 70.944 9.168L 70.944 34.08L 77.424 34.08L 77.424 0.479996L 73.344 0.479996Z"/>
</g>
</g>

</svg>
