<svg width="89" height="42" viewBox="0 0 89 42" version="1.1" xmlns="http://www.w3.org/2000/svg" xmlns:xlink="http://www.w3.org/1999/xlink">
<title>2,016</title>
<desc>Created using Figma</desc>
<g>
<g>
<path id="path0_fill" fill-rule="evenodd" d="M 0 34.176L 18.624 34.176L 18.624 28.128L 6.864 28.128C 6.864 23.04 18.48 17.328 18.48 8.736C 18.48 4.512 15.648 0 9.264 0C 3.84 0 0.624 3.264 0.336 9.648L 6.48 9.648C 6.576 7.392 7.632 6.144 9.36 6.144C 11.232 6.144 12 7.632 12 9.072C 12 14.688 0 19.488 0 30.144L 0 34.176ZM 21.984 28.416L 21.024 41.04L 24.816 41.04L 28.08 28.416L 21.984 28.416ZM 40.8 34.656C 34.752 34.656 31.152 30.912 31.152 24.528L 31.152 10.32C 31.152 3.88799 34.752 0.095993 40.8 0.095993C 46.896 0.095993 50.496 3.88799 50.496 10.32L 50.496 24.528C 50.496 30.912 46.896 34.656 40.8 34.656ZM 40.8 28.608C 43.056 28.608 44.256 27.216 44.256 24.528L 44.256 10.32C 44.256 7.584 43.056 6.144 40.8 6.144C 38.544 6.144 37.392 7.584 37.392 10.32L 37.392 24.528C 37.392 27.216 38.544 28.608 40.8 28.608ZM 60.624 0.576004L 53.616 4.896L 53.616 11.904L 58.224 9.264L 58.224 34.176L 64.704 34.176L 64.704 0.576004L 60.624 0.576004ZM 80.064 12.192C 84.96 12.192 88.224 15.84 88.224 20.736L 88.224 25.488C 88.224 31.056 84.48 34.752 78.96 34.752C 73.44 34.752 69.696 31.056 69.696 25.488L 69.696 9.264C 69.696 3.648 73.392 0 78.912 0C 84.336 0 87.888 3.552 88.032 9.216L 81.504 9.216C 81.312 7.44 80.544 6.336 78.912 6.336C 77.28 6.336 76.272 7.2 76.272 9.168L 76.272 13.392C 77.232 12.624 78.72 12.192 80.064 12.192ZM 81.648 25.44L 81.648 21.216C 81.648 19.296 80.688 18.144 79.008 18.144C 77.28 18.144 76.272 19.296 76.272 21.216L 76.272 25.44C 76.272 27.312 77.28 28.416 78.96 28.416C 80.64 28.416 81.648 27.312 81.648 25.44Z"/>
</g>
</g>

</svg>
