<svg width="89" height="42" viewBox="0 0 89 42" version="1.1" xmlns="http://www.w3.org/2000/svg" xmlns:xlink="http://www.w3.org/1999/xlink">
<title>3,190</title>
<desc>Created using Figma</desc>
<g>
<g>
<path id="path0_fill" fill-rule="evenodd" d="M 12.72 13.344L 17.952 4.84799L 17.952 0.575989L 1.152 0.575989L 1.152 6.47999L 10.128 6.47999L 5.568 14.016L 5.568 18.24L 8.736 18.24C 10.992 18.24 12.144 19.008 12.144 22.224L 12.144 23.904C 12.144 27.024 11.616 28.416 9.264 28.416C 7.344 28.416 6.624 27.216 6.432 24.912L 0 24.912C 0.288 31.152 3.408 34.752 9.36 34.752C 16.08 34.752 18.672 31.056 18.672 24.048L 18.672 21.984C 18.672 17.904 16.464 13.968 12.72 13.344ZM 22.416 28.416L 21.456 41.04L 25.248 41.04L 28.512 28.416L 22.416 28.416ZM 37.68 0.575989L 30.672 4.89599L 30.672 11.904L 35.28 9.26399L 35.28 34.176L 41.76 34.176L 41.76 0.575989L 37.68 0.575989ZM 55.584 0C 61.104 0 64.848 3.696 64.848 9.264L 64.848 25.488C 64.848 31.104 61.152 34.752 55.632 34.752C 50.208 34.752 46.656 31.2 46.512 25.536L 53.04 25.536C 53.232 27.312 54 28.416 55.632 28.416C 57.264 28.416 58.272 27.552 58.272 25.584L 58.272 21.36C 57.312 22.128 55.824 22.56 54.48 22.56C 49.584 22.56 46.32 18.912 46.32 14.016L 46.32 9.264C 46.32 3.696 50.064 0 55.584 0ZM 55.536 16.608C 57.264 16.608 58.272 15.456 58.272 13.536L 58.272 9.312C 58.272 7.44 57.264 6.336 55.584 6.336C 53.904 6.336 52.896 7.44 52.896 9.312L 52.896 13.536C 52.896 15.456 53.856 16.608 55.536 16.608ZM 78.528 34.656C 72.48 34.656 68.88 30.912 68.88 24.528L 68.88 10.32C 68.88 3.88801 72.48 0.0960083 78.528 0.0960083C 84.624 0.0960083 88.224 3.88801 88.224 10.32L 88.224 24.528C 88.224 30.912 84.624 34.656 78.528 34.656ZM 78.528 28.608C 80.784 28.608 81.984 27.216 81.984 24.528L 81.984 10.32C 81.984 7.58401 80.784 6.14401 78.528 6.14401C 76.272 6.14401 75.12 7.58401 75.12 10.32L 75.12 24.528C 75.12 27.216 76.272 28.608 78.528 28.608Z"/>
</g>
</g>

</svg>
