<svg width="94" height="42" viewBox="0 0 94 42" version="1.1" xmlns="http://www.w3.org/2000/svg" xmlns:xlink="http://www.w3.org/1999/xlink">
<title>8,754</title>
<desc>Created using Figma</desc>
<g>
<g>
<path id="path0_fill" fill-rule="evenodd" d="M 15.888 16.464C 17.856 17.952 19.104 20.496 19.104 23.328L 19.104 24.864C 19.104 31.056 15.264 34.752 9.552 34.752C 3.84 34.752 0 31.056 0 24.864L 0 23.328C 0 20.544 1.248 18 3.168 16.512C 1.584 14.832 0.576 12.528 0.576 10.224L 0.576 9.216C 0.576 3.696 4.176 0 9.552 0C 14.928 0 18.528 3.696 18.528 9.216L 18.528 10.224C 18.528 12.528 17.52 14.736 15.888 16.464ZM 6.95999 9.50399L 6.95999 10.416C 6.95999 12.768 7.87199 13.824 9.55199 13.824C 11.232 13.824 12.144 12.768 12.144 10.416L 12.144 9.50399C 12.144 7.19999 11.232 6.28799 9.55199 6.28799C 7.87199 6.28799 6.95999 7.19999 6.95999 9.50399ZM 12.624 24.816L 12.624 23.376C 12.624 20.928 11.568 19.872 9.55201 19.872C 7.53601 19.872 6.48001 20.928 6.48001 23.376L 6.48001 24.816C 6.48001 27.312 7.53601 28.368 9.55201 28.368C 11.568 28.368 12.624 27.312 12.624 24.816ZM 22.8 28.416L 21.84 41.04L 25.632 41.04L 28.896 28.416L 22.8 28.416ZM 29.52 0.575989L 29.52 6.52799L 40.416 6.52799L 32.016 34.176L 38.784 34.176L 47.712 5.42399L 47.712 0.575989L 29.52 0.575989ZM 61.2 10.944C 59.952 10.944 58.704 11.328 57.696 11.856L 57.696 6.33599L 68.064 6.33599L 68.064 0.575989L 51.168 0.575989L 51.168 19.872L 57.6 19.872C 57.936 17.808 58.848 17.136 60.336 17.136C 61.728 17.136 62.592 17.952 62.592 20.928L 62.592 24.624C 62.592 27.552 61.632 28.416 60 28.416C 58.416 28.416 57.6 27.6 57.456 25.056L 50.832 25.056C 50.976 31.056 54.48 34.752 60 34.752C 65.52 34.752 69.216 31.056 69.216 24.528L 69.216 21.024C 69.216 14.592 65.856 10.944 61.2 10.944ZM 92.592 20.64L 89.136 20.64L 89.136 9.45599L 83.952 9.45599L 82.944 20.64L 77.904 20.64L 83.472 0.575989L 77.088 0.575989L 70.944 23.04L 70.944 26.496L 82.848 26.496L 82.848 34.176L 89.136 34.176L 89.136 26.496L 92.592 26.496L 92.592 20.64Z"/>
</g>
</g>

</svg>
