<svg width="69" height="10" viewBox="0 0 69 10" version="1.1" xmlns="http://www.w3.org/2000/svg" xmlns:xlink="http://www.w3.org/1999/xlink">
<title>FOLLOWERS</title>
<desc>Created using Figma</desc>
<g>
<g>
<path id="path0_fill" fill-rule="evenodd" d="M 3.888 1.06801L 3.888 0.156006L 0 0.156006L 0 8.55601L 0.984 8.55601L 0.984 4.83601L 3.672 4.83601L 3.672 3.92401L 0.984 3.92401L 0.984 1.06801L 3.888 1.06801ZM 9.344 8.712C 7.784 8.712 6.848 7.644 6.848 5.916L 6.848 2.784C 6.848 1.068 7.784 0 9.344 0C 10.904 0 11.828 1.068 11.828 2.784L 11.828 5.916C 11.828 7.644 10.904 8.712 9.344 8.712ZM 9.344 7.75199C 10.316 7.75199 10.82 7.09199 10.82 5.91599L 10.82 2.78399C 10.82 1.61999 10.316 0.959991 9.344 0.959991C 8.36 0.959991 7.856 1.61999 7.856 2.78399L 7.856 5.91599C 7.856 7.09199 8.36 7.75199 9.344 7.75199ZM 16.336 7.62001L 16.336 0.156006L 15.352 0.156006L 15.352 8.55601L 19.264 8.55601L 19.264 7.62001L 16.336 7.62001ZM 23.22 7.62001L 23.22 0.156006L 22.236 0.156006L 22.236 8.55601L 26.148 8.55601L 26.148 7.62001L 23.22 7.62001ZM 31.388 8.712C 29.828 8.712 28.892 7.644 28.892 5.916L 28.892 2.784C 28.892 1.068 29.828 0 31.388 0C 32.948 0 33.872 1.068 33.872 2.784L 33.872 5.916C 33.872 7.644 32.948 8.712 31.388 8.712ZM 31.388 7.75199C 32.36 7.75199 32.864 7.09199 32.864 5.91599L 32.864 2.78399C 32.864 1.61999 32.36 0.959991 31.388 0.959991C 30.404 0.959991 29.9 1.61999 29.9 2.78399L 29.9 5.91599C 29.9 7.09199 30.404 7.75199 31.388 7.75199ZM 44.176 0.156006L 43.216 5.04001C 43.096 5.65201 42.88 6.78001 42.82 7.22401L 42.772 7.22401C 42.7 6.78001 42.508 5.73601 42.364 4.94401L 41.44 0.288006L 40.384 0.288006L 39.46 4.94401C 39.316 5.73601 39.124 6.78001 39.052 7.22401L 39.004 7.22401C 38.944 6.78001 38.728 5.65201 38.608 5.04001L 37.66 0.156006L 36.628 0.156006L 38.5 8.55601L 39.568 8.55601L 40.48 4.42801C 40.648 3.69601 40.828 2.43601 40.888 1.75201L 40.936 1.75201C 40.996 2.43601 41.176 3.69601 41.344 4.42801L 42.256 8.55601L 43.324 8.55601L 45.196 0.156006L 44.176 0.156006ZM 49.164 7.63201L 49.164 4.74001L 51.984 4.74001L 51.984 3.84001L 49.164 3.84001L 49.164 1.06801L 52.2 1.06801L 52.2 0.156006L 48.18 0.156006L 48.18 8.55601L 52.332 8.55601L 52.332 7.63201L 49.164 7.63201ZM 59.348 8.55601L 57.512 5.38801L 56.66 5.38801L 56.66 8.55601L 55.676 8.55601L 55.676 0.156006L 57.728 0.156006C 59.312 0.156006 60.188 1.09201 60.188 2.70001C 60.188 4.08001 59.576 4.99201 58.52 5.29201L 60.464 8.55601L 59.348 8.55601ZM 56.66 1.07999L 56.66 4.46399L 57.716 4.46399C 58.688 4.46399 59.192 3.85199 59.192 2.73599C 59.192 1.64399 58.688 1.07999 57.728 1.07999L 56.66 1.07999ZM 65.452 8.712C 66.976 8.712 67.804 7.62 67.804 6.42C 67.804 3.852 64.18 3.888 64.18 2.1C 64.18 1.404 64.648 0.948 65.44 0.948C 66.172 0.948 66.664 1.38 66.7 2.304L 67.696 2.304C 67.648 0.924 66.808 0 65.428 0C 64.072 0 63.184 0.9 63.184 2.088C 63.184 4.56 66.796 4.608 66.796 6.408C 66.796 7.2 66.352 7.764 65.44 7.764C 64.612 7.764 64.072 7.272 64.048 6.324L 63.052 6.324C 63.076 7.788 64.012 8.712 65.452 8.712Z"/>
</g>
</g>

</svg>
