<svg width="37" height="10" viewBox="0 0 37 10" version="1.1" xmlns="http://www.w3.org/2000/svg" xmlns:xlink="http://www.w3.org/1999/xlink">
<title>LOOPS</title>
<desc>Created using Figma</desc>
<g>
<g>
<path id="path0_fill" fill-rule="evenodd" d="M 0.984 7.62001L 0.984 0.156006L 0 0.156006L 0 8.55601L 3.912 8.55601L 3.912 7.62001L 0.984 7.62001ZM 9.15201 8.712C 7.59201 8.712 6.65601 7.644 6.65601 5.916L 6.65601 2.784C 6.65601 1.068 7.59201 0 9.15201 0C 10.712 0 11.636 1.068 11.636 2.784L 11.636 5.916C 11.636 7.644 10.712 8.712 9.15201 8.712ZM 9.152 7.75202C 10.124 7.75202 10.628 7.09202 10.628 5.91602L 10.628 2.78402C 10.628 1.62002 10.124 0.960022 9.152 0.960022C 8.168 0.960022 7.664 1.62002 7.664 2.78402L 7.664 5.91602C 7.664 7.09202 8.168 7.75202 9.152 7.75202ZM 17.428 8.712C 15.868 8.712 14.932 7.644 14.932 5.916L 14.932 2.784C 14.932 1.068 15.868 0 17.428 0C 18.988 0 19.912 1.068 19.912 2.784L 19.912 5.916C 19.912 7.644 18.988 8.712 17.428 8.712ZM 17.428 7.75202C 18.4 7.75202 18.904 7.09202 18.904 5.91602L 18.904 2.78402C 18.904 1.62002 18.4 0.960022 17.428 0.960022C 16.444 0.960022 15.94 1.62002 15.94 2.78402L 15.94 5.91602C 15.94 7.09202 16.444 7.75202 17.428 7.75202ZM 25.56 0.156006C 27.156 0.156006 28.056 1.11601 28.056 2.80801C 28.056 4.54801 27.156 5.49601 25.56 5.49601L 24.42 5.49601L 24.42 8.55601L 23.436 8.55601L 23.436 0.156006L 25.56 0.156006ZM 25.56 4.55998C 26.568 4.55998 27.06 4.00798 27.06 2.80798C 27.06 1.66798 26.568 1.09198 25.56 1.09198L 24.42 1.09198L 24.42 4.55998L 25.56 4.55998ZM 33.2 8.712C 34.724 8.712 35.552 7.62 35.552 6.42C 35.552 3.852 31.928 3.888 31.928 2.1C 31.928 1.404 32.396 0.948 33.188 0.948C 33.92 0.948 34.412 1.38 34.448 2.304L 35.444 2.304C 35.396 0.924 34.556 0 33.176 0C 31.82 0 30.932 0.9 30.932 2.088C 30.932 4.56 34.544 4.608 34.544 6.408C 34.544 7.2 34.1 7.764 33.188 7.764C 32.36 7.764 31.82 7.272 31.796 6.324L 30.8 6.324C 30.824 7.788 31.76 8.712 33.2 8.712Z"/>
</g>
</g>

</svg>
