<svg width="73" height="10" viewBox="0 0 73 10" version="1.1" xmlns="http://www.w3.org/2000/svg" xmlns:xlink="http://www.w3.org/1999/xlink">
<title>snap score</title>
<desc>Created using Figma</desc>
<g>
<g>
<path id="path0_fill" fill-rule="evenodd" d="M 2.4 8.712C 3.924 8.712 4.752 7.62 4.752 6.42C 4.752 3.852 1.128 3.888 1.128 2.1C 1.128 1.404 1.596 0.948 2.388 0.948C 3.12 0.948 3.612 1.38 3.648 2.304L 4.644 2.304C 4.596 0.924 3.756 0 2.376 0C 1.02 0 0.132 0.9 0.132 2.088C 0.132 4.56 3.744 4.608 3.744 6.408C 3.744 7.2 3.3 7.764 2.388 7.764C 1.56 7.764 1.02 7.272 0.996 6.324L 0 6.324C 0.024 7.788 0.96 8.712 2.4 8.712ZM 11.744 0.156006L 11.744 4.04401C 11.744 4.77601 11.816 5.95201 11.876 6.68401L 11.84 6.69601C 11.648 6.20401 11.276 5.31601 11 4.74001L 8.89999 0.156006L 7.90399 0.156006L 7.90399 8.55601L 8.88799 8.55601L 8.88799 4.59601C 8.88799 3.87601 8.83999 2.76001 8.79199 2.01601L 8.82799 2.00401C 9.00799 2.48401 9.39199 3.44401 9.65599 4.04401L 11.72 8.55601L 12.716 8.55601L 12.716 0.156006L 11.744 0.156006ZM 20.068 8.55601L 19.624 6.73201L 17.188 6.73201L 16.744 8.55601L 15.712 8.55601L 17.872 0.156006L 18.94 0.156006L 21.1 8.55601L 20.068 8.55601ZM 17.404 5.81999L 19.408 5.81999L 18.724 2.97599C 18.592 2.43599 18.472 1.72799 18.424 1.40399L 18.388 1.40399C 18.34 1.72799 18.22 2.43599 18.088 2.97599L 17.404 5.81999ZM 26.208 0.156006C 27.804 0.156006 28.704 1.11601 28.704 2.80801C 28.704 4.54801 27.804 5.49601 26.208 5.49601L 25.068 5.49601L 25.068 8.55601L 24.084 8.55601L 24.084 0.156006L 26.208 0.156006ZM 26.208 4.55998C 27.216 4.55998 27.708 4.00798 27.708 2.80798C 27.708 1.66798 27.216 1.09198 26.208 1.09198L 25.068 1.09198L 25.068 4.55998L 26.208 4.55998ZM 38.512 8.712C 40.036 8.712 40.864 7.62 40.864 6.42C 40.864 3.852 37.24 3.888 37.24 2.1C 37.24 1.404 37.708 0.948 38.5 0.948C 39.232 0.948 39.724 1.38 39.76 2.304L 40.756 2.304C 40.708 0.924 39.868 0 38.488 0C 37.132 0 36.244 0.9 36.244 2.088C 36.244 4.56 39.856 4.608 39.856 6.408C 39.856 7.2 39.412 7.764 38.5 7.764C 37.672 7.764 37.132 7.272 37.108 6.324L 36.112 6.324C 36.136 7.788 37.072 8.712 38.512 8.712ZM 46.272 8.7C 47.736 8.7 48.624 7.8 48.72 6.204L 47.748 6.204C 47.652 7.26 47.16 7.776 46.272 7.776C 45.456 7.776 44.892 7.248 44.892 6.132L 44.892 2.58C 44.892 1.452 45.432 0.924 46.236 0.924C 47.112 0.924 47.616 1.428 47.688 2.508L 48.66 2.508C 48.576 0.888 47.688 0 46.248 0C 44.844 0 43.908 0.924 43.908 2.58L 43.908 6.132C 43.908 7.788 44.856 8.7 46.272 8.7ZM 54.236 8.712C 52.676 8.712 51.74 7.644 51.74 5.916L 51.74 2.784C 51.74 1.068 52.676 0 54.236 0C 55.796 0 56.72 1.068 56.72 2.784L 56.72 5.916C 56.72 7.644 55.796 8.712 54.236 8.712ZM 54.236 7.75202C 55.208 7.75202 55.712 7.09202 55.712 5.91602L 55.712 2.78402C 55.712 1.62002 55.208 0.960022 54.236 0.960022C 53.252 0.960022 52.748 1.62002 52.748 2.78402L 52.748 5.91602C 52.748 7.09202 53.252 7.75202 54.236 7.75202ZM 63.916 8.55601L 62.08 5.38801L 61.228 5.38801L 61.228 8.55601L 60.244 8.55601L 60.244 0.156006L 62.296 0.156006C 63.88 0.156006 64.756 1.09201 64.756 2.70001C 64.756 4.08001 64.144 4.99201 63.088 5.29201L 65.032 8.55601L 63.916 8.55601ZM 61.228 1.08002L 61.228 4.46402L 62.284 4.46402C 63.256 4.46402 63.76 3.85202 63.76 2.73602C 63.76 1.64402 63.256 1.08002 62.296 1.08002L 61.228 1.08002ZM 69.156 7.63201L 69.156 4.74001L 71.976 4.74001L 71.976 3.84001L 69.156 3.84001L 69.156 1.06801L 72.192 1.06801L 72.192 0.156006L 68.172 0.156006L 68.172 8.55601L 72.324 8.55601L 72.324 7.63201L 69.156 7.63201Z"/>
</g>
</g>

</svg>
