<svg width="81" height="10" viewBox="0 0 81 10" version="1.1" xmlns="http://www.w3.org/2000/svg" xmlns:xlink="http://www.w3.org/1999/xlink">
<title>SUBSCRIBERS</title>
<desc>Created using Figma</desc>
<g>
<g>
<path id="path0_fill" fill-rule="evenodd" d="M 2.4 8.712C 3.924 8.712 4.752 7.62 4.752 6.42C 4.752 3.852 1.128 3.888 1.128 2.1C 1.128 1.404 1.596 0.948 2.388 0.948C 3.12 0.948 3.612 1.38 3.648 2.304L 4.644 2.304C 4.596 0.924 3.756 0 2.376 0C 1.02 0 0.132 0.9 0.132 2.088C 0.132 4.56 3.744 4.608 3.744 6.408C 3.744 7.2 3.3 7.764 2.388 7.764C 1.56 7.764 1.02 7.272 0.996 6.324L 0 6.324C 0.024 7.788 0.96 8.712 2.4 8.712ZM 10.28 8.67601C 11.708 8.67601 12.668 7.74001 12.668 6.01201L 12.668 0.156006L 11.672 0.156006L 11.672 6.01201C 11.672 7.17601 11.12 7.71601 10.28 7.71601C 9.452 7.71601 8.9 7.17601 8.9 6.01201L 8.9 0.156006L 7.892 0.156006L 7.892 6.01201C 7.892 7.74001 8.852 8.67601 10.28 8.67601ZM 19.708 4.22401C 20.5 4.47601 20.98 5.19601 20.98 6.20401C 20.98 7.70401 20.056 8.55601 18.58 8.55601L 16.288 8.55601L 16.288 0.156006L 18.424 0.156006C 19.804 0.156006 20.656 0.984006 20.656 2.38801C 20.656 3.30001 20.284 3.96001 19.708 4.22401ZM 18.352 1.08002L 17.272 1.08002L 17.272 3.80402L 18.376 3.80402C 19.228 3.80402 19.648 3.32402 19.648 2.41202C 19.648 1.50002 19.228 1.08002 18.352 1.08002ZM 18.496 7.63203C 19.492 7.63203 19.984 7.18803 19.984 6.20403C 19.984 5.23203 19.36 4.72803 18.412 4.72803L 17.272 4.72803L 17.272 7.63203L 18.496 7.63203ZM 26.16 8.712C 27.684 8.712 28.512 7.62 28.512 6.42C 28.512 3.852 24.888 3.888 24.888 2.1C 24.888 1.404 25.356 0.948 26.148 0.948C 26.88 0.948 27.372 1.38 27.408 2.304L 28.404 2.304C 28.356 0.924 27.516 0 26.136 0C 24.78 0 23.892 0.9 23.892 2.088C 23.892 4.56 27.504 4.608 27.504 6.408C 27.504 7.2 27.06 7.764 26.148 7.764C 25.32 7.764 24.78 7.272 24.756 6.324L 23.76 6.324C 23.784 7.788 24.72 8.712 26.16 8.712ZM 33.92 8.7C 35.384 8.7 36.272 7.8 36.368 6.204L 35.396 6.204C 35.3 7.26 34.808 7.776 33.92 7.776C 33.104 7.776 32.54 7.248 32.54 6.132L 32.54 2.58C 32.54 1.452 33.08 0.924 33.884 0.924C 34.76 0.924 35.264 1.428 35.336 2.508L 36.308 2.508C 36.224 0.888 35.336 0 33.896 0C 32.492 0 31.556 0.924 31.556 2.58L 31.556 6.132C 31.556 7.788 32.504 8.7 33.92 8.7ZM 43.288 8.55601L 41.452 5.38801L 40.6 5.38801L 40.6 8.55601L 39.616 8.55601L 39.616 0.156006L 41.668 0.156006C 43.252 0.156006 44.128 1.09201 44.128 2.70001C 44.128 4.08001 43.516 4.99201 42.46 5.29201L 44.404 8.55601L 43.288 8.55601ZM 40.6 1.08002L 40.6 4.46402L 41.656 4.46402C 42.628 4.46402 43.132 3.85202 43.132 2.73602C 43.132 1.64402 42.628 1.08002 41.668 1.08002L 40.6 1.08002ZM 47.544 0.156006L 47.544 8.55601L 48.528 8.55601L 48.528 0.156006L 47.544 0.156006ZM 55.712 4.22401C 56.504 4.47601 56.984 5.19601 56.984 6.20401C 56.984 7.70401 56.06 8.55601 54.584 8.55601L 52.292 8.55601L 52.292 0.156006L 54.428 0.156006C 55.808 0.156006 56.66 0.984006 56.66 2.38801C 56.66 3.30001 56.288 3.96001 55.712 4.22401ZM 54.356 1.08002L 53.276 1.08002L 53.276 3.80402L 54.38 3.80402C 55.232 3.80402 55.652 3.32402 55.652 2.41202C 55.652 1.50002 55.232 1.08002 54.356 1.08002ZM 54.5 7.63203C 55.496 7.63203 55.988 7.18803 55.988 6.20403C 55.988 5.23203 55.364 4.72803 54.416 4.72803L 53.276 4.72803L 53.276 7.63203L 54.5 7.63203ZM 61.156 7.63201L 61.156 4.74001L 63.976 4.74001L 63.976 3.84001L 61.156 3.84001L 61.156 1.06801L 64.192 1.06801L 64.192 0.156006L 60.172 0.156006L 60.172 8.55601L 64.324 8.55601L 64.324 7.63201L 61.156 7.63201ZM 71.34 8.55601L 69.504 5.38801L 68.652 5.38801L 68.652 8.55601L 67.668 8.55601L 67.668 0.156006L 69.72 0.156006C 71.304 0.156006 72.18 1.09201 72.18 2.70001C 72.18 4.08001 71.568 4.99201 70.512 5.29201L 72.456 8.55601L 71.34 8.55601ZM 68.652 1.08002L 68.652 4.46402L 69.708 4.46402C 70.68 4.46402 71.184 3.85202 71.184 2.73602C 71.184 1.64402 70.68 1.08002 69.72 1.08002L 68.652 1.08002ZM 77.444 8.712C 78.968 8.712 79.796 7.62 79.796 6.42C 79.796 3.852 76.172 3.888 76.172 2.1C 76.172 1.404 76.64 0.948 77.432 0.948C 78.164 0.948 78.656 1.38 78.692 2.304L 79.688 2.304C 79.64 0.924 78.8 0 77.42 0C 76.064 0 75.176 0.9 75.176 2.088C 75.176 4.56 78.788 4.608 78.788 6.408C 78.788 7.2 78.344 7.764 77.432 7.764C 76.604 7.764 76.064 7.272 76.04 6.324L 75.044 6.324C 75.068 7.788 76.004 8.712 77.444 8.712Z"/>
</g>
</g>

</svg>
